<mxfile host="app.diagrams.net" modified="2023-09-10T17:44:54.077Z" agent="Mozilla/5.0 (Windows NT 10.0; Win64; x64) AppleWebKit/537.36 (KHTML, like Gecko) Chrome/114.0.0.0 YaBrowser/23.7.4.971 Yowser/2.5 Safari/537.36" etag="V7gRDNud8K7qLyULDRbf" version="21.7.4" type="github">
  <diagram name="Page-1" id="2YBvvXClWsGukQMizWep">
    <mxGraphModel dx="956" dy="529" grid="1" gridSize="10" guides="1" tooltips="1" connect="1" arrows="1" fold="1" page="1" pageScale="1" pageWidth="850" pageHeight="1100" math="0" shadow="0">
      <root>
        <mxCell id="0" />
        <mxCell id="1" parent="0" />
        <mxCell id="Y-vqDW19g1uKTGTxjWH1-1" value="Пользователь" style="shape=umlLifeline;perimeter=lifelinePerimeter;whiteSpace=wrap;html=1;container=0;dropTarget=0;collapsible=0;recursiveResize=0;outlineConnect=0;portConstraint=eastwest;newEdgeStyle={&quot;edgeStyle&quot;:&quot;elbowEdgeStyle&quot;,&quot;elbow&quot;:&quot;vertical&quot;,&quot;curved&quot;:0,&quot;rounded&quot;:0};" vertex="1" parent="1">
          <mxGeometry x="40" y="40" width="100" height="1060" as="geometry" />
        </mxCell>
        <mxCell id="Y-vqDW19g1uKTGTxjWH1-2" value="" style="html=1;points=[];perimeter=orthogonalPerimeter;outlineConnect=0;targetShapes=umlLifeline;portConstraint=eastwest;newEdgeStyle={&quot;edgeStyle&quot;:&quot;elbowEdgeStyle&quot;,&quot;elbow&quot;:&quot;vertical&quot;,&quot;curved&quot;:0,&quot;rounded&quot;:0};" vertex="1" parent="Y-vqDW19g1uKTGTxjWH1-1">
          <mxGeometry x="45" y="70" width="10" height="850" as="geometry" />
        </mxCell>
        <mxCell id="Y-vqDW19g1uKTGTxjWH1-3" value="Приложение" style="shape=umlLifeline;perimeter=lifelinePerimeter;whiteSpace=wrap;html=1;container=0;dropTarget=0;collapsible=0;recursiveResize=0;outlineConnect=0;portConstraint=eastwest;newEdgeStyle={&quot;edgeStyle&quot;:&quot;elbowEdgeStyle&quot;,&quot;elbow&quot;:&quot;vertical&quot;,&quot;curved&quot;:0,&quot;rounded&quot;:0};" vertex="1" parent="1">
          <mxGeometry x="220" y="40" width="100" height="1060" as="geometry" />
        </mxCell>
        <mxCell id="Y-vqDW19g1uKTGTxjWH1-4" value="" style="html=1;points=[];perimeter=orthogonalPerimeter;outlineConnect=0;targetShapes=umlLifeline;portConstraint=eastwest;newEdgeStyle={&quot;edgeStyle&quot;:&quot;elbowEdgeStyle&quot;,&quot;elbow&quot;:&quot;vertical&quot;,&quot;curved&quot;:0,&quot;rounded&quot;:0};" vertex="1" parent="Y-vqDW19g1uKTGTxjWH1-3">
          <mxGeometry x="45" y="80" width="10" height="840" as="geometry" />
        </mxCell>
        <mxCell id="Y-vqDW19g1uKTGTxjWH1-5" value="Открыть придожение" style="html=1;verticalAlign=bottom;endArrow=block;edgeStyle=elbowEdgeStyle;elbow=vertical;curved=0;rounded=0;" edge="1" parent="1">
          <mxGeometry x="0.0024" relative="1" as="geometry">
            <mxPoint x="95" y="130" as="sourcePoint" />
            <Array as="points">
              <mxPoint x="180" y="130" />
            </Array>
            <mxPoint x="265" y="130" as="targetPoint" />
            <mxPoint as="offset" />
          </mxGeometry>
        </mxCell>
        <mxCell id="Y-vqDW19g1uKTGTxjWH1-6" value="Открытое приложение" style="html=1;verticalAlign=bottom;endArrow=open;dashed=1;endSize=8;edgeStyle=elbowEdgeStyle;elbow=vertical;curved=0;rounded=0;" edge="1" parent="1">
          <mxGeometry x="0.0028" relative="1" as="geometry">
            <mxPoint x="95" y="150" as="targetPoint" />
            <Array as="points">
              <mxPoint x="210" y="150" />
              <mxPoint x="190" y="270" />
            </Array>
            <mxPoint x="265" y="150" as="sourcePoint" />
            <mxPoint as="offset" />
          </mxGeometry>
        </mxCell>
        <mxCell id="Y-vqDW19g1uKTGTxjWH1-7" value="Backend" style="shape=umlLifeline;perimeter=lifelinePerimeter;whiteSpace=wrap;html=1;container=0;dropTarget=0;collapsible=0;recursiveResize=0;outlineConnect=0;portConstraint=eastwest;newEdgeStyle={&quot;edgeStyle&quot;:&quot;elbowEdgeStyle&quot;,&quot;elbow&quot;:&quot;vertical&quot;,&quot;curved&quot;:0,&quot;rounded&quot;:0};" vertex="1" parent="1">
          <mxGeometry x="400" y="40" width="100" height="1060" as="geometry" />
        </mxCell>
        <mxCell id="Y-vqDW19g1uKTGTxjWH1-8" value="" style="html=1;points=[];perimeter=orthogonalPerimeter;outlineConnect=0;targetShapes=umlLifeline;portConstraint=eastwest;newEdgeStyle={&quot;edgeStyle&quot;:&quot;elbowEdgeStyle&quot;,&quot;elbow&quot;:&quot;vertical&quot;,&quot;curved&quot;:0,&quot;rounded&quot;:0};" vertex="1" parent="Y-vqDW19g1uKTGTxjWH1-7">
          <mxGeometry x="45" y="160" width="10" height="40" as="geometry" />
        </mxCell>
        <mxCell id="Y-vqDW19g1uKTGTxjWH1-9" value="Стоимость заказа" style="html=1;verticalAlign=bottom;endArrow=open;dashed=1;endSize=8;edgeStyle=elbowEdgeStyle;elbow=vertical;curved=0;rounded=0;" edge="1" parent="Y-vqDW19g1uKTGTxjWH1-7">
          <mxGeometry x="0.0028" relative="1" as="geometry">
            <mxPoint x="-125" y="350.00000000000006" as="targetPoint" />
            <Array as="points" />
            <mxPoint x="45" y="350.00000000000006" as="sourcePoint" />
            <mxPoint as="offset" />
          </mxGeometry>
        </mxCell>
        <mxCell id="Y-vqDW19g1uKTGTxjWH1-10" value="" style="html=1;points=[];perimeter=orthogonalPerimeter;outlineConnect=0;targetShapes=umlLifeline;portConstraint=eastwest;newEdgeStyle={&quot;edgeStyle&quot;:&quot;elbowEdgeStyle&quot;,&quot;elbow&quot;:&quot;vertical&quot;,&quot;curved&quot;:0,&quot;rounded&quot;:0};" vertex="1" parent="Y-vqDW19g1uKTGTxjWH1-7">
          <mxGeometry x="45" y="320" width="10" height="40" as="geometry" />
        </mxCell>
        <mxCell id="Y-vqDW19g1uKTGTxjWH1-11" value="Отправить запрос&lt;br&gt;с выбранными параметрами" style="html=1;verticalAlign=bottom;endArrow=block;edgeStyle=elbowEdgeStyle;elbow=vertical;curved=0;rounded=0;" edge="1" parent="Y-vqDW19g1uKTGTxjWH1-7">
          <mxGeometry x="0.0028" relative="1" as="geometry">
            <mxPoint x="-125" y="330" as="sourcePoint" />
            <Array as="points">
              <mxPoint x="-40" y="330" />
            </Array>
            <mxPoint x="45" y="330" as="targetPoint" />
            <mxPoint as="offset" />
          </mxGeometry>
        </mxCell>
        <mxCell id="Y-vqDW19g1uKTGTxjWH1-12" value="" style="html=1;points=[];perimeter=orthogonalPerimeter;outlineConnect=0;targetShapes=umlLifeline;portConstraint=eastwest;newEdgeStyle={&quot;edgeStyle&quot;:&quot;elbowEdgeStyle&quot;,&quot;elbow&quot;:&quot;vertical&quot;,&quot;curved&quot;:0,&quot;rounded&quot;:0};" vertex="1" parent="Y-vqDW19g1uKTGTxjWH1-7">
          <mxGeometry x="45" y="480" width="10" height="80" as="geometry" />
        </mxCell>
        <mxCell id="Y-vqDW19g1uKTGTxjWH1-13" value="Отправить запрос&lt;br&gt;на оплату" style="html=1;verticalAlign=bottom;endArrow=block;edgeStyle=elbowEdgeStyle;elbow=vertical;curved=0;rounded=0;" edge="1" parent="Y-vqDW19g1uKTGTxjWH1-7">
          <mxGeometry x="0.0028" relative="1" as="geometry">
            <mxPoint x="-125" y="610" as="sourcePoint" />
            <Array as="points">
              <mxPoint x="-40" y="610" />
            </Array>
            <mxPoint x="45" y="610" as="targetPoint" />
            <mxPoint as="offset" />
          </mxGeometry>
        </mxCell>
        <mxCell id="Y-vqDW19g1uKTGTxjWH1-14" value="Билеты на почту" style="html=1;verticalAlign=bottom;endArrow=open;dashed=1;endSize=8;edgeStyle=elbowEdgeStyle;elbow=vertical;curved=0;rounded=0;" edge="1" parent="Y-vqDW19g1uKTGTxjWH1-7">
          <mxGeometry x="0.0028" relative="1" as="geometry">
            <mxPoint x="-125" y="630" as="targetPoint" />
            <Array as="points" />
            <mxPoint x="45" y="630" as="sourcePoint" />
            <mxPoint as="offset" />
          </mxGeometry>
        </mxCell>
        <mxCell id="Y-vqDW19g1uKTGTxjWH1-15" value="" style="html=1;points=[];perimeter=orthogonalPerimeter;outlineConnect=0;targetShapes=umlLifeline;portConstraint=eastwest;newEdgeStyle={&quot;edgeStyle&quot;:&quot;elbowEdgeStyle&quot;,&quot;elbow&quot;:&quot;vertical&quot;,&quot;curved&quot;:0,&quot;rounded&quot;:0};" vertex="1" parent="Y-vqDW19g1uKTGTxjWH1-7">
          <mxGeometry x="45" y="600" width="10" height="40" as="geometry" />
        </mxCell>
        <mxCell id="Y-vqDW19g1uKTGTxjWH1-17" value="Выбрать &quot;Заказать билеты&quot;" style="html=1;verticalAlign=bottom;endArrow=block;edgeStyle=elbowEdgeStyle;elbow=vertical;curved=0;rounded=0;" edge="1" parent="1">
          <mxGeometry x="0.0039" relative="1" as="geometry">
            <mxPoint x="95" y="180" as="sourcePoint" />
            <Array as="points">
              <mxPoint x="185" y="180" />
            </Array>
            <mxPoint x="265" y="180" as="targetPoint" />
            <mxPoint as="offset" />
          </mxGeometry>
        </mxCell>
        <mxCell id="Y-vqDW19g1uKTGTxjWH1-18" value="Отправить запрос&lt;br&gt;на получение фильмов" style="html=1;verticalAlign=bottom;endArrow=block;edgeStyle=elbowEdgeStyle;elbow=vertical;curved=0;rounded=0;" edge="1" parent="1">
          <mxGeometry x="0.0028" relative="1" as="geometry">
            <mxPoint x="275" y="210" as="sourcePoint" />
            <Array as="points">
              <mxPoint x="360" y="210" />
            </Array>
            <mxPoint x="445" y="210" as="targetPoint" />
            <mxPoint as="offset" />
          </mxGeometry>
        </mxCell>
        <mxCell id="Y-vqDW19g1uKTGTxjWH1-19" value="Список фильмов" style="html=1;verticalAlign=bottom;endArrow=open;dashed=1;endSize=8;edgeStyle=elbowEdgeStyle;elbow=vertical;curved=0;rounded=0;" edge="1" parent="1">
          <mxGeometry x="0.0028" relative="1" as="geometry">
            <mxPoint x="275" y="230" as="targetPoint" />
            <Array as="points">
              <mxPoint x="385" y="230" />
              <mxPoint x="365" y="350" />
            </Array>
            <mxPoint x="445" y="230" as="sourcePoint" />
            <mxPoint as="offset" />
          </mxGeometry>
        </mxCell>
        <mxCell id="Y-vqDW19g1uKTGTxjWH1-20" value="Выбрать &quot;Понравившийся&quot;" style="html=1;verticalAlign=bottom;endArrow=block;edgeStyle=elbowEdgeStyle;elbow=vertical;curved=0;rounded=0;" edge="1" parent="1" source="Y-vqDW19g1uKTGTxjWH1-2" target="Y-vqDW19g1uKTGTxjWH1-4">
          <mxGeometry x="0.0028" relative="1" as="geometry">
            <mxPoint x="105" y="260" as="sourcePoint" />
            <Array as="points">
              <mxPoint x="195" y="260" />
            </Array>
            <mxPoint x="260" y="260" as="targetPoint" />
            <mxPoint as="offset" />
          </mxGeometry>
        </mxCell>
        <mxCell id="Y-vqDW19g1uKTGTxjWH1-21" value="Список параметров" style="html=1;verticalAlign=bottom;endArrow=open;dashed=1;endSize=8;edgeStyle=elbowEdgeStyle;elbow=vertical;curved=0;rounded=0;" edge="1" parent="1">
          <mxGeometry x="0.0028" relative="1" as="geometry">
            <mxPoint x="275" y="310.00000000000006" as="targetPoint" />
            <Array as="points" />
            <mxPoint x="445" y="310.00000000000006" as="sourcePoint" />
            <mxPoint as="offset" />
          </mxGeometry>
        </mxCell>
        <mxCell id="Y-vqDW19g1uKTGTxjWH1-22" value="Выбрать &quot;Параметры&quot;&lt;br&gt;(количество билетов и тип места)" style="html=1;verticalAlign=bottom;endArrow=block;edgeStyle=elbowEdgeStyle;elbow=vertical;curved=0;rounded=0;" edge="1" parent="1" source="Y-vqDW19g1uKTGTxjWH1-2" target="Y-vqDW19g1uKTGTxjWH1-4">
          <mxGeometry x="0.0024" relative="1" as="geometry">
            <mxPoint x="100" y="340" as="sourcePoint" />
            <Array as="points">
              <mxPoint x="200" y="340" />
            </Array>
            <mxPoint x="260" y="340" as="targetPoint" />
            <mxPoint as="offset" />
          </mxGeometry>
        </mxCell>
        <mxCell id="Y-vqDW19g1uKTGTxjWH1-23" value="" style="html=1;points=[];perimeter=orthogonalPerimeter;outlineConnect=0;targetShapes=umlLifeline;portConstraint=eastwest;newEdgeStyle={&quot;edgeStyle&quot;:&quot;elbowEdgeStyle&quot;,&quot;elbow&quot;:&quot;vertical&quot;,&quot;curved&quot;:0,&quot;rounded&quot;:0};" vertex="1" parent="1">
          <mxGeometry x="445" y="280" width="10" height="40" as="geometry" />
        </mxCell>
        <mxCell id="Y-vqDW19g1uKTGTxjWH1-24" value="Отправить запрос&lt;br&gt;на получение параметров" style="html=1;verticalAlign=bottom;endArrow=block;edgeStyle=elbowEdgeStyle;elbow=vertical;curved=0;rounded=0;" edge="1" parent="1">
          <mxGeometry x="0.0024" relative="1" as="geometry">
            <mxPoint x="275" y="290" as="sourcePoint" />
            <Array as="points">
              <mxPoint x="360" y="290" />
            </Array>
            <mxPoint x="445" y="290" as="targetPoint" />
            <mxPoint as="offset" />
          </mxGeometry>
        </mxCell>
        <mxCell id="Y-vqDW19g1uKTGTxjWH1-25" value="Заказ" style="html=1;verticalAlign=bottom;endArrow=open;dashed=1;endSize=8;edgeStyle=elbowEdgeStyle;elbow=vertical;curved=0;rounded=0;" edge="1" parent="1">
          <mxGeometry x="0.0028" relative="1" as="geometry">
            <mxPoint x="275" y="470.00000000000006" as="targetPoint" />
            <Array as="points" />
            <mxPoint x="445" y="470.00000000000006" as="sourcePoint" />
            <mxPoint as="offset" />
          </mxGeometry>
        </mxCell>
        <mxCell id="Y-vqDW19g1uKTGTxjWH1-26" value="" style="html=1;points=[];perimeter=orthogonalPerimeter;outlineConnect=0;targetShapes=umlLifeline;portConstraint=eastwest;newEdgeStyle={&quot;edgeStyle&quot;:&quot;elbowEdgeStyle&quot;,&quot;elbow&quot;:&quot;vertical&quot;,&quot;curved&quot;:0,&quot;rounded&quot;:0};" vertex="1" parent="1">
          <mxGeometry x="445" y="440" width="10" height="40" as="geometry" />
        </mxCell>
        <mxCell id="Y-vqDW19g1uKTGTxjWH1-27" value="Отправить запрос&lt;br&gt;с введёнными данными" style="html=1;verticalAlign=bottom;endArrow=block;edgeStyle=elbowEdgeStyle;elbow=vertical;curved=0;rounded=0;" edge="1" parent="1">
          <mxGeometry x="0.0028" relative="1" as="geometry">
            <mxPoint x="275" y="450" as="sourcePoint" />
            <Array as="points">
              <mxPoint x="360" y="450" />
            </Array>
            <mxPoint x="445" y="450" as="targetPoint" />
            <mxPoint as="offset" />
          </mxGeometry>
        </mxCell>
        <mxCell id="Y-vqDW19g1uKTGTxjWH1-28" value="Ввести &quot;Данные&quot;" style="html=1;verticalAlign=bottom;endArrow=block;edgeStyle=elbowEdgeStyle;elbow=vertical;curved=0;rounded=0;" edge="1" parent="1" source="Y-vqDW19g1uKTGTxjWH1-2" target="Y-vqDW19g1uKTGTxjWH1-4">
          <mxGeometry x="0.0028" relative="1" as="geometry">
            <mxPoint x="100" y="420" as="sourcePoint" />
            <Array as="points">
              <mxPoint x="195" y="420" />
            </Array>
            <mxPoint x="260" y="420" as="targetPoint" />
            <mxPoint as="offset" />
          </mxGeometry>
        </mxCell>
        <mxCell id="Y-vqDW19g1uKTGTxjWH1-29" value="Кинотеатр" style="shape=umlLifeline;perimeter=lifelinePerimeter;whiteSpace=wrap;html=1;container=0;dropTarget=0;collapsible=0;recursiveResize=0;outlineConnect=0;portConstraint=eastwest;newEdgeStyle={&quot;edgeStyle&quot;:&quot;elbowEdgeStyle&quot;,&quot;elbow&quot;:&quot;vertical&quot;,&quot;curved&quot;:0,&quot;rounded&quot;:0};" vertex="1" parent="1">
          <mxGeometry x="580" y="40" width="100" height="1060" as="geometry" />
        </mxCell>
        <mxCell id="Y-vqDW19g1uKTGTxjWH1-30" value="" style="html=1;points=[];perimeter=orthogonalPerimeter;outlineConnect=0;targetShapes=umlLifeline;portConstraint=eastwest;newEdgeStyle={&quot;edgeStyle&quot;:&quot;elbowEdgeStyle&quot;,&quot;elbow&quot;:&quot;vertical&quot;,&quot;curved&quot;:0,&quot;rounded&quot;:0};" vertex="1" parent="Y-vqDW19g1uKTGTxjWH1-29">
          <mxGeometry x="45" y="480" width="10" height="40" as="geometry" />
        </mxCell>
        <mxCell id="Y-vqDW19g1uKTGTxjWH1-32" value="" style="html=1;points=[];perimeter=orthogonalPerimeter;outlineConnect=0;targetShapes=umlLifeline;portConstraint=eastwest;newEdgeStyle={&quot;edgeStyle&quot;:&quot;elbowEdgeStyle&quot;,&quot;elbow&quot;:&quot;vertical&quot;,&quot;curved&quot;:0,&quot;rounded&quot;:0};" vertex="1" parent="Y-vqDW19g1uKTGTxjWH1-29">
          <mxGeometry x="45" y="790" width="10" height="130" as="geometry" />
        </mxCell>
        <mxCell id="Y-vqDW19g1uKTGTxjWH1-53" value="" style="html=1;points=[];perimeter=orthogonalPerimeter;outlineConnect=0;targetShapes=umlLifeline;portConstraint=eastwest;newEdgeStyle={&quot;edgeStyle&quot;:&quot;elbowEdgeStyle&quot;,&quot;elbow&quot;:&quot;vertical&quot;,&quot;curved&quot;:0,&quot;rounded&quot;:0};" vertex="1" parent="Y-vqDW19g1uKTGTxjWH1-29">
          <mxGeometry x="50" y="850" width="10" height="40" as="geometry" />
        </mxCell>
        <mxCell id="Y-vqDW19g1uKTGTxjWH1-51" value="" style="endArrow=classic;html=1;edgeStyle=orthogonalEdgeStyle;" edge="1" parent="Y-vqDW19g1uKTGTxjWH1-29" source="Y-vqDW19g1uKTGTxjWH1-32" target="Y-vqDW19g1uKTGTxjWH1-53">
          <mxGeometry width="50" height="50" relative="1" as="geometry">
            <mxPoint x="60" y="830" as="sourcePoint" />
            <mxPoint x="65" y="865" as="targetPoint" />
            <Array as="points">
              <mxPoint x="75" y="830" />
              <mxPoint x="75" y="865" />
            </Array>
          </mxGeometry>
        </mxCell>
        <mxCell id="Y-vqDW19g1uKTGTxjWH1-52" value="Сканирование билетов" style="edgeLabel;html=1;align=center;verticalAlign=middle;resizable=0;points=[];" vertex="1" connectable="0" parent="Y-vqDW19g1uKTGTxjWH1-51">
          <mxGeometry x="0.15" relative="1" as="geometry">
            <mxPoint x="70" y="-5" as="offset" />
          </mxGeometry>
        </mxCell>
        <mxCell id="Y-vqDW19g1uKTGTxjWH1-37" value="Зарезервированные места" style="html=1;verticalAlign=bottom;endArrow=open;dashed=1;endSize=8;edgeStyle=elbowEdgeStyle;elbow=vertical;curved=0;rounded=0;" edge="1" parent="1">
          <mxGeometry x="0.0047" relative="1" as="geometry">
            <mxPoint x="455" y="550" as="targetPoint" />
            <Array as="points" />
            <mxPoint x="625" y="550" as="sourcePoint" />
            <mxPoint as="offset" />
          </mxGeometry>
        </mxCell>
        <mxCell id="Y-vqDW19g1uKTGTxjWH1-38" value="Зарезервированные места" style="html=1;verticalAlign=bottom;endArrow=open;dashed=1;endSize=8;edgeStyle=elbowEdgeStyle;elbow=vertical;curved=0;rounded=0;" edge="1" parent="1">
          <mxGeometry x="0.0047" relative="1" as="geometry">
            <mxPoint x="275" y="590" as="targetPoint" />
            <Array as="points" />
            <mxPoint x="445" y="590" as="sourcePoint" />
            <mxPoint as="offset" />
          </mxGeometry>
        </mxCell>
        <mxCell id="Y-vqDW19g1uKTGTxjWH1-39" value="Оплатить &quot;заказ&quot;" style="html=1;verticalAlign=bottom;endArrow=block;edgeStyle=elbowEdgeStyle;elbow=vertical;curved=0;rounded=0;" edge="1" parent="1" source="Y-vqDW19g1uKTGTxjWH1-2" target="Y-vqDW19g1uKTGTxjWH1-4">
          <mxGeometry x="0.0028" relative="1" as="geometry">
            <mxPoint x="100" y="620" as="sourcePoint" />
            <Array as="points">
              <mxPoint x="200" y="620" />
            </Array>
            <mxPoint x="260" y="620" as="targetPoint" />
            <mxPoint as="offset" />
          </mxGeometry>
        </mxCell>
        <mxCell id="Y-vqDW19g1uKTGTxjWH1-40" value="Отправить запрос&lt;br&gt;с информацией о заказе" style="html=1;verticalAlign=bottom;endArrow=block;edgeStyle=elbowEdgeStyle;elbow=vertical;curved=0;rounded=0;" edge="1" parent="1" source="Y-vqDW19g1uKTGTxjWH1-12" target="Y-vqDW19g1uKTGTxjWH1-30">
          <mxGeometry x="0.0028" relative="1" as="geometry">
            <mxPoint x="460" y="530" as="sourcePoint" />
            <Array as="points">
              <mxPoint x="535" y="530" />
            </Array>
            <mxPoint x="620" y="530" as="targetPoint" />
            <mxPoint as="offset" />
          </mxGeometry>
        </mxCell>
        <mxCell id="Y-vqDW19g1uKTGTxjWH1-45" value="Открыть билеты" style="html=1;verticalAlign=bottom;endArrow=block;edgeStyle=elbowEdgeStyle;elbow=vertical;curved=0;rounded=0;" edge="1" parent="1" target="Y-vqDW19g1uKTGTxjWH1-32">
          <mxGeometry x="0.002" relative="1" as="geometry">
            <mxPoint x="95" y="840" as="sourcePoint" />
            <Array as="points">
              <mxPoint x="210" y="840" />
            </Array>
            <mxPoint x="620" y="840" as="targetPoint" />
            <mxPoint as="offset" />
          </mxGeometry>
        </mxCell>
        <mxCell id="Y-vqDW19g1uKTGTxjWH1-55" value="Доступ к залу" style="html=1;verticalAlign=bottom;endArrow=open;dashed=1;endSize=8;edgeStyle=elbowEdgeStyle;elbow=vertical;curved=0;rounded=0;" edge="1" parent="1" target="Y-vqDW19g1uKTGTxjWH1-2">
          <mxGeometry x="0.0028" relative="1" as="geometry">
            <mxPoint x="455" y="940.03" as="targetPoint" />
            <Array as="points" />
            <mxPoint x="625" y="940.03" as="sourcePoint" />
            <mxPoint as="offset" />
          </mxGeometry>
        </mxCell>
      </root>
    </mxGraphModel>
  </diagram>
</mxfile>
